Coordinates
version=1
nRows=7
nColumns=40
inDegrees=yes

Units are S.I. units (second, meters, Newtons, ...)
Angles are in degrees.

endheader
time	pelvis_tilt	pelvis_list	pelvis_rotation	pelvis_tx	pelvis_ty	pelvis_tz	hip_flexion_r	hip_adduction_r	hip_rotation_r	knee_angle_r	knee_angle_r_beta	ankle_angle_r	subtalar_angle_r	mtp_angle_r	hip_flexion_l	hip_adduction_l	hip_rotation_l	knee_angle_l	knee_angle_l_beta	ankle_angle_l	subtalar_angle_l	mtp_angle_l	lumbar_extension	lumbar_bending	lumbar_rotation	arm_flex_r	arm_add_r	arm_rot_r	elbow_flex_r	pro_sup_r	wrist_flex_r	wrist_dev_r	arm_flex_l	arm_add_l	arm_rot_l	elbow_flex_l	pro_sup_l	wrist_flex_l	wrist_dev_l
     39.03500000	     -6.00740529	     -3.53335083	    -14.19384751	      0.99220166	      0.92926242	      0.43271902	     24.39152935	     -1.80257573	     -3.71451956	     17.83692861	     17.83692861	      6.00964394	      6.10662717	      2.95698887	      9.48300983	     -5.04806904	    -16.49249176	     20.04987795	     20.04987795	     17.17071958	    -16.19224305	      4.85871239	    -10.34109559	      7.81379107	      2.27366432	    -25.60225702	    -10.21603635	    -14.87617657	     31.40729600	     46.42636509	      0.00000000	      0.00000000	     39.10627146	    -24.97365072	    -15.63181385	     88.92175176	     48.83353683	      0.00000000	      0.00000000
     39.05635714	     -5.98411367	     -3.22599246	    -14.21834251	      0.99321289	      0.92757157	      0.43605856	     23.97551679	     -1.95545348	     -4.02508585	     16.52469441	     16.52469441	      6.03111978	      7.91539765	      4.06825869	      9.25631196	     -4.93314603	    -16.65735066	     20.36859984	     20.36859984	     17.45648170	    -16.14206516	      4.21515670	    -10.23952033	      7.57182366	      2.25049730	    -25.13067164	    -10.23635080	    -14.60081666	     31.83311421	     46.38805080	      0.00000000	      0.00000000	     39.31796708	    -24.80613766	    -16.17296496	     90.22064758	     48.89135469	      0.00000000	      0.00000000
     39.07771429	     -6.01984323	     -2.87966022	    -14.17321506	      0.99443072	      0.92594954	      0.43970241	     23.83872784	     -2.07983322	     -3.89427259	     16.05877422	     16.05877422	      5.93105746	      8.55331236	      4.30497182	      9.05068191	     -4.76749942	    -16.66830196	     20.58836177	     20.58836177	     17.78807607	    -16.13703394	      3.87912167	    -10.02695489	      7.27306640	      2.21417628	    -24.52320703	    -10.22880384	    -14.44882424	     32.11680589	     46.36856376	      0.00000000	      0.00000000	     39.54833075	    -24.62678920	    -16.37242435	     90.79407752	     48.91524037	      0.00000000	      0.00000000
     39.09907143	     -5.98257279	     -2.66443414	    -14.02912387	      0.99610480	      0.92474118	      0.44354929	     23.60337265	     -2.15099060	     -3.98020602	     16.01367865	     16.01367865	      5.58794765	      9.06381408	      3.24231643	      8.59701123	     -4.71216952	    -16.69112821	     20.57402755	     20.57402755	     17.87930094	    -16.02447313	      3.10014239	     -9.90871149	      7.17065754	      1.45248973	    -23.56636546	    -10.77054676	    -12.89179213	     32.45819849	     46.24000169	      0.00000000	      0.00000000	     38.42494760	    -24.66531112	    -18.08813939	     92.86673983	     49.04344035	      0.00000000	      0.00000000
     39.12042857	     -5.95726399	     -2.42555077	    -13.85689691	      0.99795817	      0.92381360	      0.44771323	     23.55925396	     -2.20682361	     -3.72135359	     16.59747240	     16.59747240	      5.59210705	      8.80123457	      2.58255274	      8.08913477	     -4.61762424	    -16.63247190	     20.44321666	     20.44321666	     18.12810615	    -15.84067322	      3.01752629	     -9.74625861	      7.01974073	      1.57993912	    -22.99236625	    -10.86756802	    -12.61183954	     32.60082842	     46.21769260	      0.00000000	      0.00000000	     38.25472036	    -24.19091547	    -18.07364692	     93.12559651	     49.04367530	      0.00000000	      0.00000000
     39.14178571	     -5.91640264	     -2.17931783	    -13.61734505	      1.00002934	      0.92317355	      0.45213038	     23.57363273	     -2.25818664	     -3.38082771	     17.53512756	     17.53512756	      5.62802205	      7.96277819	      1.41686003	      7.45382880	     -4.50567883	    -16.63827480	     20.10327647	     20.10327647	     18.32446709	    -15.57465616	      2.99913803	     -9.57444650	      6.86736605	      1.56292690	    -22.37635039	    -11.06608305	    -12.32448746	     32.79953894	     46.19294130	      0.00000000	      0.00000000	     37.77494116	    -23.71198720	    -18.26142265	     93.38514058	     49.05452550	      0.00000000	      0.00000000
     39.16314286	     -5.89356222	     -2.04750148	    -13.30288658	      1.00220492	      0.92285712	      0.45681536	     23.50662058	     -2.17757258	     -2.98368072	     18.47122148	     18.47122148	      5.72254942	      7.00596472	      0.31622734	      6.76849968	     -4.52409688	    -16.44602742	     19.68317763	     19.68317763	     18.41059213	    -15.18727480	      3.00488464	     -9.42519875	      6.82709328	      1.47372516	    -21.81603224	    -11.34430429	    -12.10358645	     33.01394912	     46.17222390	      0.00000000	      0.00000000	     37.10377044	    -23.27807386	    -18.45750063	     93.51547201	     49.06265666	      0.00000000	      0.00000000
